<svg xmlns="http://www.w3.org/2000/svg" version="1.1" xmlns:xlink="http://www.w3.org/1999/xlink" xmlns:svgjs="http://svgjs.dev/svgjs" width="1000" height="1000"><g clip-path="url(#SvgjsClipPath1088)"><rect width="1000" height="1000" fill="#a61c57"></rect><g transform="matrix(6,0,0,6,50,50)"><svg xmlns="http://www.w3.org/2000/svg" version="1.1" xmlns:xlink="http://www.w3.org/1999/xlink" xmlns:svgjs="http://svgjs.dev/svgjs" width="150" height="150"><svg version="1.2" xmlns="http://www.w3.org/2000/svg" viewBox="0 0 150 150" width="150" height="150">
	<title>1066244_102192-OLW0TC-52</title>
	<defs>
		<clipPath clipPathUnits="userSpaceOnUse" id="cp1">
			<path d="m75.88 71.26c0.66-2.23 5.35-7.53 11.77-13.26 7.83-6.99 14.34-16.94 10.96-28.68-2.51-8.76-9.24-15.25-14.76-22.5 0 0-5.53 0.97-9.13 4-3.6-3.03-9.13-4-9.13-4-5.52 7.25-12.25 13.74-14.77 22.5-3.37 11.74 3.14 21.69 10.97 28.68 6.42 5.73 11.1 11.03 11.77 13.26z"></path>
		</clipPath>
		<clipPath clipPathUnits="userSpaceOnUse" id="cp2">
			<path d="m75.88 71.26c0.66-2.23 5.35-7.53 11.77-13.26 7.83-6.99 14.34-16.94 10.96-28.68-2.51-8.76-9.24-15.25-14.76-22.5 0 0-5.53 0.97-9.13 4-3.6-3.03-9.13-4-9.13-4-5.52 7.25-12.25 13.74-14.77 22.5-3.37 11.74 3.14 21.69 10.97 28.68 6.42 5.73 11.1 11.03 11.77 13.26z"></path>
		</clipPath>
		<clipPath clipPathUnits="userSpaceOnUse" id="cp3">
			<path d="m69.66 74.09c-1.92-1.32-5.51-7.42-8.98-15.29-4.22-9.6-11.67-18.87-23.88-19.29-9.11-0.31-17.36 4.08-25.97 7.09 0 0-0.78 5.56 0.99 9.92-4 2.49-6.63 7.45-6.63 7.45 5.19 7.49 9.28 15.89 16.84 20.99 10.12 6.84 21.6 3.72 30.66-1.56 7.43-4.34 13.92-7.16 16.25-7.1z"></path>
		</clipPath>
		<clipPath clipPathUnits="userSpaceOnUse" id="cp4">
			<path d="m69.66 74.09c-1.92-1.32-5.51-7.42-8.98-15.29-4.22-9.6-11.67-18.87-23.88-19.29-9.11-0.31-17.36 4.08-25.97 7.09 0 0-0.78 5.56 0.99 9.92-4 2.49-6.63 7.45-6.63 7.45 5.19 7.49 9.28 15.89 16.84 20.99 10.12 6.84 21.6 3.72 30.66-1.56 7.43-4.34 13.92-7.16 16.25-7.1z"></path>
		</clipPath>
		<clipPath clipPathUnits="userSpaceOnUse" id="cp5">
			<path d="m70.43 80.88c-1.85 1.42-8.76 2.95-17.32 3.82-10.44 1.05-21.55 5.27-25.73 16.75-3.11 8.57-1.48 17.77-1.28 26.88 0 0 5.05 2.47 9.75 2.13 1.13 4.57 5.03 8.61 5.03 8.61 8.73-2.62 17.98-3.92 25.17-9.53 9.63-7.51 10.21-19.39 7.99-29.64-1.83-8.41-2.5-15.45-1.73-17.65z"></path>
		</clipPath>
		<clipPath clipPathUnits="userSpaceOnUse" id="cp6">
			<path d="m70.43 80.88c-1.85 1.42-8.76 2.95-17.32 3.82-10.44 1.05-21.55 5.27-25.73 16.75-3.11 8.57-1.48 17.77-1.28 26.88 0 0 5.05 2.47 9.75 2.13 1.13 4.57 5.03 8.61 5.03 8.61 8.73-2.62 17.98-3.92 25.17-9.53 9.63-7.51 10.21-19.39 7.99-29.64-1.83-8.41-2.5-15.45-1.73-17.65z"></path>
		</clipPath>
		<clipPath clipPathUnits="userSpaceOnUse" id="cp7">
			<path d="m77.13 82.25c0.77 2.2 0.1 9.24-1.73 17.65-2.22 10.25-1.65 22.13 7.99 29.64 7.18 5.61 16.44 6.91 25.17 9.53 0 0 3.9-4.04 5.03-8.61 4.7 0.34 9.74-2.12 9.74-2.12 0.21-9.12 1.83-18.32-1.28-26.89-4.17-11.48-15.29-15.7-25.72-16.75-8.57-0.86-15.47-2.4-17.33-3.82z"></path>
		</clipPath>
		<clipPath clipPathUnits="userSpaceOnUse" id="cp8">
			<path d="m77.13 82.25c0.77 2.2 0.1 9.24-1.73 17.65-2.22 10.25-1.65 22.13 7.99 29.64 7.18 5.61 16.44 6.91 25.17 9.53 0 0 3.9-4.04 5.03-8.61 4.7 0.34 9.74-2.12 9.74-2.12 0.21-9.12 1.83-18.32-1.28-26.89-4.17-11.48-15.29-15.7-25.72-16.75-8.57-0.86-15.47-2.4-17.33-3.82z"></path>
		</clipPath>
		<clipPath clipPathUnits="userSpaceOnUse" id="cp9">
			<path d="m77.13 82.25c0.77 2.2 0.1 9.24-1.73 17.65-2.22 10.25-1.65 22.13 7.99 29.64 7.18 5.61 16.44 6.91 25.17 9.53 0 0 3.9-4.04 5.03-8.61 4.7 0.34 9.74-2.12 9.74-2.12 0.21-9.12 1.83-18.32-1.28-26.89-4.17-11.48-15.29-15.7-25.72-16.75-8.57-0.86-15.47-2.4-17.33-3.82z"></path>
		</clipPath>
		<clipPath clipPathUnits="userSpaceOnUse" id="cp10">
			<path d="m80.49 76.3c2.34-0.05 8.82 2.76 16.26 7.1 9.06 5.28 20.54 8.4 30.66 1.57 7.55-5.11 11.64-13.51 16.84-21 0 0-2.64-4.96-6.63-7.45 1.77-4.36 0.98-9.92 0.98-9.92-8.6-3.01-16.85-7.4-25.96-7.09-12.21 0.42-19.66 9.69-23.89 19.29-3.46 7.88-7.06 13.97-8.98 15.29z"></path>
		</clipPath>
		<clipPath clipPathUnits="userSpaceOnUse" id="cp11">
			<path d="m80.49 76.3c2.34-0.05 8.82 2.76 16.26 7.1 9.06 5.28 20.54 8.4 30.66 1.57 7.55-5.11 11.64-13.51 16.84-21 0 0-2.64-4.96-6.63-7.45 1.77-4.36 0.98-9.92 0.98-9.92-8.6-3.01-16.85-7.4-25.96-7.09-12.21 0.42-19.66 9.69-23.89 19.29-3.46 7.88-7.06 13.97-8.98 15.29z"></path>
		</clipPath>
	<clipPath id="SvgjsClipPath1088"><rect width="1000" height="1000" x="0" y="0" rx="350" ry="350"></rect></clipPath></defs>
	<style>
		.s0 { fill: #a61c57 } 
		.s1 { fill: #ffffff } 
		.s2 { fill: #f6dcef } 
		.s3 { fill: #e89dd5 } 
		.s4 { fill: #6b0d2e } 
		.s5 { fill: #c4246b } 
		.s6 { fill: #891542 } 
	</style>
	<g id="OBJECTS">
		<g>
			<g>
				<path fill-rule="evenodd" class="s0" d="m106.1 79.8c-1.6 17.4-16.9 30.1-34.3 28.5-17.3-1.6-30.1-16.9-28.5-34.2 1.6-17.4 16.9-30.1 34.3-28.5 17.4 1.6 30.1 16.9 28.5 34.2z"></path>
				<g>
					<g id="Clip-Path" clip-path="url(#cp1)">
						<g>
							<g>
								<g>
									<path class="s1" d="m75.9 71.3c0.6-2.3 5.3-7.6 11.8-13.3 7.8-7 14.3-16.9 10.9-28.7-2.5-8.7-9.2-15.2-14.8-22.5 0 0-5.5 1-9.1 4-3.6-3-9.1-4-9.1-4-5.5 7.3-12.3 13.8-14.8 22.5-3.4 11.8 3.2 21.7 11 28.7 6.4 5.7 11.1 11 11.8 13.3z"></path>
									<path class="s2" d="m75.7 71.3c0.5-1.9 4.3-6.2 9.5-10.8 6.4-5.7 11.7-13.8 8.9-23.3-2-7.1-7.5-12.4-12-18.3 0 0-4.5 0.8-7.4 3.3-2.9-2.5-7.4-3.3-7.4-3.3-4.5 5.9-10 11.2-12 18.3-2.7 9.5 2.6 17.6 8.9 23.3 5.2 4.6 9 8.9 9.6 10.8z"></path>
								</g>
							</g>
						</g>
					</g>
					<g id="Clip-Path" clip-path="url(#cp2)">
						<g>
							<g>
								<path class="s3" d="m75.3 71.3c0.3-1.1 2.4-4.9 5.3-7.7 3.6-3.4 6.6-8.3 5.1-14q-0.1-0.3-0.2-0.5c-3.4-9.8-18.2-9.8-21.6 0q-0.1 0.2-0.1 0.5c-1.6 5.7 1.4 10.6 5 14 2.9 2.8 5.1 6.6 5.4 7.7z"></path>
							</g>
						</g>
					</g>
				</g>
				<g>
					<g id="Clip-Path" clip-path="url(#cp3)">
						<g>
							<g>
								<g>
									<path class="s1" d="m69.7 74.1c-2-1.3-5.6-7.4-9-15.3-4.2-9.6-11.7-18.9-23.9-19.3-9.1-0.3-17.4 4.1-26 7.1 0 0-0.8 5.6 1 9.9-4 2.5-6.6 7.5-6.6 7.5 5.2 7.5 9.3 15.9 16.8 21 10.1 6.8 21.6 3.7 30.7-1.6 7.4-4.3 13.9-7.2 16.2-7.1z"></path>
									<path class="s2" d="m69.6 74.3c-1.6-1.1-4.5-6-7.3-12.4-3.4-7.8-9.5-15.4-19.4-15.7-7.4-0.2-14.1 3.3-21.1 5.8 0 0-0.6 4.5 0.8 8-3.2 2-5.4 6.1-5.4 6.1 4.2 6.1 7.6 12.9 13.7 17 8.2 5.6 17.5 3.1 24.9-1.2 6-3.6 11.3-5.9 13.2-5.8z"></path>
								</g>
							</g>
						</g>
					</g>
					<g id="Clip-Path" clip-path="url(#cp4)">
						<g>
							<g>
								<path class="s3" d="m69.5 74.7c-1-0.6-3.9-3.8-5.6-7.5-2.2-4.5-5.9-8.8-11.9-9.1q-0.2 0-0.5 0c-10.3 0.2-14.9 14.2-6.7 20.5q0.3 0.2 0.5 0.3c5 3.3 10.5 1.9 14.9-0.4 3.6-2 7.8-2.8 8.9-2.8z"></path>
							</g>
						</g>
					</g>
				</g>
				<g>
					<g id="Clip-Path" clip-path="url(#cp5)">
						<g>
							<g>
								<g>
									<path class="s1" d="m70.4 80.9c-1.8 1.4-8.7 2.9-17.3 3.8-10.4 1-21.5 5.3-25.7 16.7-3.1 8.6-1.5 17.8-1.3 26.9 0 0 5 2.5 9.7 2.2 1.2 4.5 5.1 8.6 5.1 8.6 8.7-2.7 18-3.9 25.2-9.6 9.6-7.5 10.2-19.4 7.9-29.6-1.8-8.4-2.5-15.5-1.7-17.7z"></path>
									<path class="s2" d="m70.6 81c-1.5 1.2-7.1 2.4-14.1 3.1-8.4 0.9-17.5 4.3-20.9 13.6-2.5 7-1.2 14.5-1 21.9 0 0 4.1 2 7.9 1.7 0.9 3.7 4.1 7 4.1 7 7.1-2.2 14.6-3.2 20.4-7.8 7.9-6.1 8.3-15.7 6.5-24-1.4-6.9-2-12.6-1.4-14.4z"></path>
								</g>
							</g>
						</g>
					</g>
					<g id="Clip-Path" clip-path="url(#cp6)">
						<g>
							<g>
								<path class="s3" d="m70.9 81.3c-0.9 0.7-4.8 2.4-8.8 3-4.9 0.6-10.2 2.8-12.4 8.4q0 0.2-0.1 0.5c-3 9.9 9 18.5 17.5 12.7q0.2-0.2 0.4-0.3c4.6-3.8 5.1-9.5 4.2-14.4-0.7-4-0.3-8.3 0.1-9.3z"></path>
							</g>
						</g>
					</g>
				</g>
				<g>
					<g id="Clip-Path" clip-path="url(#cp7)">
						<g>
							<g>
								<g>
									<path class="s1" d="m77.1 82.2c0.8 2.2 0.1 9.3-1.7 17.7-2.2 10.2-1.6 22.1 8 29.6 7.2 5.7 16.4 6.9 25.2 9.6 0 0 3.9-4.1 5-8.6 4.7 0.3 9.7-2.2 9.7-2.2 0.2-9.1 1.9-18.3-1.2-26.8-4.2-11.5-15.3-15.8-25.8-16.8-8.5-0.9-15.4-2.4-17.3-3.8z"></path>
									<path class="s2" d="m77.3 82.1c0.6 1.8 0.1 7.5-1.4 14.4-1.8 8.3-1.3 17.9 6.5 24 5.8 4.6 13.3 5.6 20.4 7.8 0 0 3.2-3.3 4.1-7 3.8 0.3 7.9-1.7 7.9-1.7 0.2-7.4 1.5-14.9-1-21.9-3.4-9.3-12.4-12.7-20.9-13.6-7-0.7-12.6-1.9-14.1-3.1z"></path>
								</g>
							</g>
						</g>
					</g>
					<g id="Clip-Path" clip-path="url(#cp8)">
						<g>
							<g>
								<path class="s3" d="m77.6 81.9c0.4 1 0.9 5.3 0.2 9.3-0.9 4.9-0.5 10.6 4.2 14.4q0.1 0.1 0.4 0.3c8.5 5.8 20.4-2.8 17.5-12.7q-0.1-0.3-0.2-0.5c-2.1-5.6-7.4-7.8-12.3-8.4-4.1-0.6-8-2.3-8.9-3.1z"></path>
							</g>
						</g>
					</g>
					<g id="Clip-Path" clip-path="url(#cp9)">
						<g>
							<g>
								<path class="s3" d="m77.3 81.6c0.4 1.1 0.8 5.3 0.1 9.3-0.9 4.9-0.5 10.6 4.2 14.4q0.2 0.1 0.4 0.3c8.5 5.9 20.4-2.8 17.5-12.7q-0.1-0.3-0.2-0.5c-2.1-5.6-7.4-7.8-12.3-8.4-4.1-0.6-8-2.3-8.9-3z"></path>
							</g>
						</g>
					</g>
				</g>
				<g>
					<g id="Clip-Path" clip-path="url(#cp10)">
						<g>
							<g>
								<g>
									<path class="s1" d="m80.5 76.3c2.3-0.1 8.8 2.8 16.2 7.1 9.1 5.3 20.6 8.4 30.7 1.6 7.6-5.1 11.7-13.5 16.8-21 0 0-2.6-5-6.6-7.5 1.8-4.3 1-9.9 1-9.9-8.6-3-16.9-7.4-26-7.1-12.2 0.4-19.6 9.7-23.8 19.3-3.5 7.9-7.1 14-9 15.3z"></path>
									<path class="s2" d="m80.4 76.1c1.9-0.1 7.2 2.2 13.2 5.8 7.4 4.3 16.7 6.8 24.9 1.2 6.2-4.1 9.5-10.9 13.7-17 0 0-2.1-4.1-5.4-6.1 1.5-3.5 0.8-8 0.8-8-7-2.5-13.7-6-21.1-5.8-9.9 0.3-15.9 7.9-19.4 15.7-2.8 6.4-5.7 11.3-7.3 12.4z"></path>
								</g>
							</g>
						</g>
					</g>
					<g id="Clip-Path" clip-path="url(#cp11)">
						<g>
							<g>
								<path class="s3" d="m80.3 75.7c1.1 0 5.3 0.8 8.9 2.8 4.4 2.3 10 3.7 15 0.4q0.2-0.1 0.4-0.3c8.2-6.3 3.6-20.3-6.7-20.5q-0.3 0-0.5 0c-6 0.3-9.7 4.6-11.8 9.1-1.8 3.7-4.7 6.9-5.6 7.5z"></path>
							</g>
						</g>
					</g>
				</g>
				<path class="s1" d="m73.6 72.1c-1.6-4.8-3.1-9.7-5.1-14.3q-1.5-3.3-3.2-6.4c-1.2-2.1-3.2-3.6-4.2-5.6-0.3-0.5-1-0.1-0.8 0.4 1 1.7 2.5 2.7 3.6 4.4 1.2 2 2.3 4.2 3.3 6.3 2.3 4.9 3.8 10.3 5.6 15.4 0.2 0.5 1 0.3 0.8-0.2z"></path>
				<g>
					<g>
						<path class="s1" d="m75 76c-1.1-5.2-1.9-10.1-0.5-15.4 1.2-4.7 4.4-8.7 7.9-12 0.4-0.3-0.2-0.9-0.6-0.6-3.8 3.5-6.5 7.5-8.1 12.4-1.7 5.2-0.6 10.7 0.5 15.9 0.2 0.5 1 0.3 0.8-0.3z"></path>
						<path class="s1" d="m74.9 77.4c-0.9-4.4-4.4-8.2-7.5-11.2-4.1-4-9.3-7.5-15.1-8.6-0.5-0.1-0.7 0.7-0.2 0.8 5.3 1.1 9.9 4.1 13.9 7.6 3.4 3 7.2 7.1 8.1 11.6 0.1 0.5 0.9 0.3 0.8-0.2z"></path>
						<path class="s1" d="m74.5 76.3c-10.3-4.7-20.5-9.5-30.3-15.4-0.4-0.2-0.9 0.5-0.4 0.8 9.7 5.8 20 10.6 30.3 15.3 0.5 0.2 0.9-0.5 0.4-0.7z"></path>
						<path class="s1" d="m74.1 76.3c-9.7 2-19.7 2.6-28.9-1.7-0.5-0.2-0.9 0.5-0.4 0.7 9.4 4.4 19.6 3.9 29.5 1.8 0.6-0.1 0.3-0.9-0.2-0.8z"></path>
						<path class="s1" d="m74.8 76.5c-3 0.4-6.4 4.9-8.4 6.8-4.7 4.4-9 9.2-13 14.3-0.4 0.4 0.2 1 0.6 0.6q4.6-5.9 9.8-11.2c1.7-1.8 3.6-3.5 5.4-5.1 1.3-1.3 3.9-4.3 5.8-4.6 0.5-0.1 0.3-0.9-0.2-0.8z"></path>
						<path class="s1" d="m74.8 76.4c-2.5 2.1-3.4 7-4.2 9.9-1.9 6.2-2.9 12.8-4.2 19.2-0.1 0.5 0.7 0.8 0.8 0.2 1-5 2-10 3.1-15 0.8-3.8 1.9-11 5.1-13.7 0.4-0.3-0.2-0.9-0.6-0.6z"></path>
						<path class="s1" d="m74.2 77.7c1.7 4.9 3.2 9.7 3.7 14.8 0.5 5.3-1.1 10.6-2.4 15.7-0.2 0.5 0.6 0.7 0.8 0.2 1.2-4.7 2.4-9.4 2.5-14.3 0.1-5.7-2-11.3-3.8-16.6-0.1-0.5-0.9-0.3-0.8 0.2z"></path>
						<path class="s1" d="m74.1 77.9q8.4 12.8 14.9 26.7c0.2 0.4 0.9 0 0.7-0.5q-6.5-13.8-14.9-26.6c-0.3-0.4-1 0-0.7 0.4z"></path>
						<path class="s1" d="m74.4 77.6c8.2 9.3 17.4 17.8 26.4 26.3 0.4 0.4 1-0.2 0.6-0.6-9-8.5-18.2-17-26.4-26.3-0.4-0.4-1 0.2-0.6 0.6z"></path>
						<path class="s1" d="m75.1 76.9c9.4 4.5 17.6 10.7 24.5 18.5 0.3 0.4 0.9-0.2 0.6-0.6-6.9-7.9-15.2-14.1-24.6-18.6-0.5-0.2-1 0.5-0.5 0.7z"></path>
						<path class="s1" d="m74.4 77.5c5.9 2.1 12.2 2.1 18.4 3.2 5.8 1 10.6 1.8 16.5 0.6 0.5-0.1 0.3-0.9-0.2-0.8-6.2 1.3-11.3 0.2-17.4-0.9-5.7-1-11.6-1-17.1-2.9-0.5-0.2-0.7 0.6-0.2 0.8z"></path>
						<path class="s1" d="m75.1 76c4.2 1.1 8.4 0.1 12.6-0.8 5.8-1.3 11.4-3.2 16.9-5.5 0.5-0.2 0.3-1-0.2-0.8q-6.2 2.6-12.6 4.4c-5.1 1.5-11.2 3.3-16.4 1.9-0.6-0.2-0.8 0.6-0.3 0.8z"></path>
						<path class="s1" d="m74.9 77c1.7-4.8 8.1-7.4 12-10.1 3.9-2.7 6.7-6.2 8.8-10.3 0.3-0.5-0.5-0.9-0.7-0.5-2.8 5.5-6.8 9-11.9 12.3-3.3 2.2-7.6 4.5-9 8.4-0.2 0.5 0.6 0.7 0.8 0.2z"></path>
						<path class="s1" d="m74.9 76.3c-3.2-10.4-5.2-21.6-4.5-32.5 0.1-0.5-0.8-0.5-0.8 0-0.7 11 1.3 22.3 4.5 32.8 0.1 0.5 0.9 0.2 0.8-0.3z"></path>
						<path class="s1" d="m74.9 76.1c-8.4 9.8-14.9 20.9-19.1 33.1-0.2 0.5 0.6 0.7 0.8 0.2 4.2-12 10.6-23 18.9-32.7 0.4-0.4-0.2-1-0.6-0.6z"></path>
					</g>
					<path class="s1" d="m75.8 76.6c-2.7-9.6 2.7-18.1 10.7-23.1 0.4-0.2 0-1-0.4-0.7-8.4 5.2-13.9 14.1-11.1 24 0.2 0.6 1 0.3 0.8-0.2z"></path>
					<path class="s1" d="m72.6 76.2q-11 6.9-23.2 11.8c-0.5 0.2-0.2 1 0.3 0.8q12.2-4.9 23.4-11.8c0.4-0.3 0-1-0.5-0.8z"></path>
					<path class="s1" d="m75.9 75.8c3-2.5 7.3-3.5 10.9-4.7q5.4-1.9 10.8-3.5c0.6-0.2 0.3-1-0.2-0.8q-7 2.1-13.9 4.5c-2.9 1.1-5.8 1.9-8.2 3.9-0.4 0.4 0.2 1 0.6 0.6z"></path>
				</g>
				<g>
					<path class="s0" d="m55.3 98.3c0 0.9-0.7 1.7-1.6 1.7-1 0-1.7-0.8-1.7-1.7 0-0.9 0.7-1.7 1.7-1.7 0.9 0 1.6 0.8 1.6 1.7z"></path>
					<path class="s0" d="m57.9 109.7c0 0.9-0.7 1.7-1.7 1.7-1 0-1.8-0.8-1.8-1.7 0-1 0.8-1.8 1.8-1.8 1 0 1.7 0.8 1.7 1.8z"></path>
					<path class="s0" d="m69.1 105.9c0 1.1-0.8 2-1.9 2-1.1 0-1.9-0.9-1.9-2 0-1 0.8-1.9 1.9-1.9 1.1 0 1.9 0.9 1.9 1.9z"></path>
					<path class="s0" d="m77.9 108.7c0 1.2-1 2.1-2.2 2.1-1.2 0-2.1-0.9-2.1-2.1 0-1.2 0.9-2.2 2.1-2.2 1.2 0 2.2 1 2.2 2.2z"></path>
					<path class="s0" d="m91.3 104.4c0 0.8-0.6 1.4-1.4 1.4-0.8 0-1.5-0.6-1.5-1.4 0-0.9 0.7-1.5 1.5-1.5 0.8 0 1.4 0.6 1.4 1.5z"></path>
					<path class="s0" d="m103.5 104c0 1-0.8 1.8-1.8 1.8-1 0-1.8-0.8-1.8-1.8 0-1 0.8-1.8 1.8-1.8 1 0 1.8 0.8 1.8 1.8z"></path>
					<path class="s0" d="m101.7 95.1c0 1.1-0.8 1.9-1.8 1.9-1.1 0-1.9-0.8-1.9-1.9 0-1 0.8-1.8 1.9-1.8 1 0 1.8 0.8 1.8 1.8z"></path>
					<path class="s0" d="m111.1 81.1c0 1.1-0.8 2-1.9 2-1.1 0-1.9-0.9-1.9-2 0-1 0.8-1.9 1.9-1.9 1.1 0 1.9 0.9 1.9 1.9z"></path>
					<path class="s0" d="m107.3 69.3c0 1.2-1 2.2-2.3 2.2-1.2 0-2.2-1-2.2-2.2 0-1.2 1-2.2 2.2-2.2 1.3 0 2.3 1 2.3 2.2z"></path>
					<path class="s0" d="m97 56.1c0 0.9-0.7 1.6-1.6 1.6-1 0-1.7-0.7-1.7-1.6 0-0.9 0.7-1.7 1.7-1.7 0.9 0 1.6 0.8 1.6 1.7z"></path>
					<path class="s0" d="m84.3 48c0 0.8-0.7 1.5-1.5 1.5-0.9 0-1.6-0.7-1.6-1.5 0-0.9 0.7-1.6 1.6-1.6 0.8 0 1.5 0.7 1.5 1.6z"></path>
					<path class="s0" d="m72.1 43.8c0 1.1-0.9 2-2 2-1 0-1.9-0.9-1.9-2 0-1 0.9-1.9 1.9-1.9 1.1 0 2 0.9 2 1.9z"></path>
					<path class="s0" d="m54.5 58c0 1.3-1 2.3-2.3 2.3-1.2 0-2.2-1-2.2-2.3 0-1.2 1-2.2 2.2-2.2 1.3 0 2.3 1 2.3 2.2z"></path>
					<path class="s0" d="m45.8 61.1c0 1-0.8 1.8-1.8 1.8-1 0-1.8-0.8-1.8-1.8 0-1 0.8-1.7 1.8-1.7 1 0 1.8 0.7 1.8 1.7z"></path>
					<path class="s0" d="m46.4 74.5c0 1.3-1 2.4-2.4 2.4-1.3 0-2.4-1.1-2.4-2.4 0-1.3 1.1-2.4 2.4-2.4 1.4 0 2.4 1.1 2.4 2.4z"></path>
					<path class="s0" d="m62.3 45.8c0 0.9-0.7 1.6-1.6 1.6-0.9 0-1.6-0.7-1.6-1.6 0-0.9 0.7-1.6 1.6-1.6 0.9 0 1.6 0.7 1.6 1.6z"></path>
					<path class="s0" d="m50.9 88.4c0 0.9-0.7 1.7-1.7 1.7-0.9 0-1.6-0.8-1.6-1.7 0-0.9 0.7-1.7 1.6-1.7 1 0 1.7 0.8 1.7 1.7z"></path>
					<path class="s0" d="m88.4 53.2c0 1-0.8 1.7-1.8 1.7-1 0-1.8-0.7-1.8-1.7 0-1 0.8-1.8 1.8-1.8 1 0 1.8 0.8 1.8 1.8z"></path>
					<path class="s0" d="m99.6 67.1c0 0.8-0.7 1.5-1.6 1.5-0.9 0-1.6-0.7-1.6-1.5 0-0.9 0.7-1.6 1.6-1.6 0.9 0 1.6 0.7 1.6 1.6z"></path>
				</g>
				<g>
					<path fill-rule="evenodd" class="s1" d="m74.7 87.3c-5.7 0-10.3-4.6-10.3-10.3 0-5.8 4.6-10.4 10.3-10.4 5.7 0 10.3 4.6 10.3 10.4 0 5.7-4.6 10.3-10.3 10.3z"></path>
					<path class="s0" d="m82.4 77c0 4.2-3.4 7.6-7.7 7.6-4.2 0-7.7-3.4-7.7-7.6 0-4.3 3.5-7.7 7.7-7.7 4.3 0 7.7 3.4 7.7 7.7z"></path>
					<path class="s4" d="m80.2 77c0 3-2.5 5.4-5.5 5.4-3 0-5.4-2.4-5.4-5.4 0-3 2.4-5.5 5.4-5.5 3 0 5.5 2.5 5.5 5.5z"></path>
				</g>
				<g>
					<path class="s0" d="m70.6 79.2c0 0.7-0.5 1.2-1.2 1.2-0.7 0-1.2-0.5-1.2-1.2 0-0.6 0.5-1.2 1.2-1.2 0.7 0 1.2 0.6 1.2 1.2z"></path>
					<path class="s0" d="m68 74.4c0 0.7-0.6 1.2-1.3 1.2-0.6 0-1.2-0.5-1.2-1.2 0-0.7 0.6-1.2 1.2-1.2 0.7 0 1.3 0.5 1.3 1.2z"></path>
					<path class="s5" d="m72.9 72c0 0.7-0.6 1.2-1.3 1.2-0.6 0-1.2-0.5-1.2-1.2 0-0.6 0.6-1.2 1.2-1.2 0.7 0 1.3 0.6 1.3 1.2z"></path>
					<path class="s0" d="m73.9 69c0 0.6-0.5 1.2-1.2 1.2-0.6 0-1.2-0.6-1.2-1.2 0-0.7 0.6-1.3 1.2-1.3 0.7 0 1.2 0.6 1.2 1.3z"></path>
					<path class="s6" d="m71.3 70c0 0.7-0.6 1.2-1.3 1.2-0.6 0-1.2-0.5-1.2-1.2 0-0.7 0.6-1.2 1.2-1.2 0.7 0 1.3 0.5 1.3 1.2z"></path>
					<path class="s6" d="m69.2 71.8c0 0.6-0.5 1.2-1.2 1.2-0.6 0-1.2-0.6-1.2-1.2 0-0.7 0.6-1.2 1.2-1.2 0.7 0 1.2 0.5 1.2 1.2z"></path>
					<path class="s6" d="m75.6 72c0 0.7-0.6 1.2-1.2 1.2-0.7 0-1.3-0.5-1.3-1.2 0-0.6 0.6-1.2 1.3-1.2 0.6 0 1.2 0.6 1.2 1.2z"></path>
					<path class="s6" d="m79.5 70.1c0 0.6-0.5 1.2-1.2 1.2-0.7 0-1.2-0.6-1.2-1.2 0-0.7 0.5-1.2 1.2-1.2 0.7 0 1.2 0.5 1.2 1.2z"></path>
					<path class="s0" d="m82.1 71.1c0 0.6-0.5 1.2-1.2 1.2-0.7 0-1.2-0.6-1.2-1.2 0-0.7 0.5-1.2 1.2-1.2 0.7 0 1.2 0.5 1.2 1.2z"></path>
					<path class="s6" d="m83.9 73.7c0 0.7-0.5 1.2-1.2 1.2-0.6 0-1.2-0.5-1.2-1.2 0-0.7 0.6-1.2 1.2-1.2 0.7 0 1.2 0.5 1.2 1.2z"></path>
					<path class="s0" d="m84.3 76.5c0 0.7-0.6 1.2-1.2 1.2-0.7 0-1.2-0.5-1.2-1.2 0-0.6 0.5-1.2 1.2-1.2 0.6 0 1.2 0.6 1.2 1.2z"></path>
					<path class="s5" d="m76.6 69.4c0 0.6-0.5 1.2-1.2 1.2-0.6 0-1.2-0.6-1.2-1.2 0-0.7 0.6-1.3 1.2-1.3 0.7 0 1.2 0.6 1.2 1.3z"></path>
					<path class="s5" d="m78.3 72.5c0 0.7-0.5 1.2-1.2 1.2-0.7 0-1.2-0.5-1.2-1.2 0-0.7 0.5-1.2 1.2-1.2 0.7 0 1.2 0.5 1.2 1.2z"></path>
					<path fill-rule="evenodd" class="s5" d="m79.9 74.7c-0.7 0-1.2-0.5-1.2-1.2 0-0.7 0.5-1.2 1.2-1.2 0.7 0 1.2 0.5 1.2 1.2 0 0.7-0.5 1.2-1.2 1.2z"></path>
					<path class="s6" d="m81.1 79.8c0 0.6-0.5 1.2-1.2 1.2-0.7 0-1.2-0.6-1.2-1.2 0-0.7 0.5-1.3 1.2-1.3 0.7 0 1.2 0.6 1.2 1.3z"></path>
					<path class="s0" d="m81.4 76.5c0 0.7-0.6 1.2-1.3 1.2-0.6 0-1.2-0.5-1.2-1.2 0-0.6 0.6-1.2 1.2-1.2 0.7 0 1.3 0.6 1.3 1.2z"></path>
					<path class="s5" d="m83.7 79.4c0 0.7-0.6 1.2-1.2 1.2-0.7 0-1.3-0.5-1.3-1.2 0-0.7 0.6-1.2 1.3-1.2 0.6 0 1.2 0.5 1.2 1.2z"></path>
					<path class="s5" d="m68.2 77.3c0 0.7-0.6 1.2-1.2 1.2-0.7 0-1.2-0.5-1.2-1.2 0-0.6 0.5-1.2 1.2-1.2 0.6 0 1.2 0.6 1.2 1.2z"></path>
					<path fill-rule="evenodd" class="s0" d="m69.6 75.1c-0.7 0-1.2-0.6-1.2-1.2 0-0.7 0.5-1.2 1.2-1.2 0.7 0 1.2 0.5 1.2 1.2 0 0.6-0.5 1.2-1.2 1.2z"></path>
					<path class="s6" d="m71 76.5c0 0.7-0.6 1.2-1.2 1.2-0.7 0-1.2-0.5-1.2-1.2 0-0.6 0.5-1.2 1.2-1.2 0.6 0 1.2 0.6 1.2 1.2z"></path>
					<path class="s6" d="m73.4 79.4c0 0.7-0.5 1.3-1.2 1.3-0.7 0-1.2-0.6-1.2-1.3 0-0.6 0.5-1.2 1.2-1.2 0.7 0 1.2 0.6 1.2 1.2z"></path>
					<path class="s5" d="m74.4 77c0 0.7-0.6 1.2-1.3 1.2-0.6 0-1.2-0.5-1.2-1.2 0-0.6 0.6-1.2 1.2-1.2 0.7 0 1.3 0.6 1.3 1.2z"></path>
					<path class="s6" d="m76.6 77.1c0 0.6-0.4 1.1-1 1.1-0.6 0-1.1-0.5-1.1-1.1 0-0.6 0.5-1.1 1.1-1.1 0.6 0 1 0.5 1 1.1z"></path>
					<path class="s0" d="m78.9 81.5c0 0.7-0.5 1.2-1.2 1.2-0.6 0-1.2-0.5-1.2-1.2 0-0.6 0.6-1.2 1.2-1.2 0.7 0 1.2 0.6 1.2 1.2z"></path>
					<path class="s6" d="m76.2 82.7c0 0.7-0.5 1.2-1.2 1.2-0.6 0-1.2-0.5-1.2-1.2 0-0.6 0.6-1.2 1.2-1.2 0.7 0 1.2 0.6 1.2 1.2z"></path>
					<path class="s5" d="m73.5 82.1c0 0.7-0.6 1.3-1.3 1.3-0.6 0-1.2-0.6-1.2-1.3 0-0.6 0.6-1.2 1.2-1.2 0.7 0 1.3 0.6 1.3 1.2z"></path>
					<path class="s0" d="m76.1 79.9c0 0.7-0.5 1.2-1.2 1.2-0.6 0-1.2-0.5-1.2-1.2 0-0.6 0.6-1.2 1.2-1.2 0.7 0 1.2 0.6 1.2 1.2z"></path>
					<path class="s0" d="m70 82c0 0.6-0.5 1.2-1.2 1.2-0.6 0-1.2-0.6-1.2-1.2 0-0.7 0.6-1.3 1.2-1.3 0.7 0 1.2 0.6 1.2 1.3z"></path>
					<path fill-rule="evenodd" class="s5" d="m67 81.6c-0.7 0-1.2-0.6-1.2-1.2 0-0.7 0.5-1.2 1.2-1.2 0.6 0 1.2 0.5 1.2 1.2 0 0.6-0.6 1.2-1.2 1.2z"></path>
					<path class="s6" d="m72.2 84.2c0 0.7-0.6 1.3-1.2 1.3-0.7 0-1.2-0.6-1.2-1.3 0-0.6 0.5-1.2 1.2-1.2 0.6 0 1.2 0.6 1.2 1.2z"></path>
					<path class="s0" d="m74.9 85.4c0 0.7-0.5 1.2-1.2 1.2-0.6 0-1.2-0.5-1.2-1.2 0-0.7 0.6-1.2 1.2-1.2 0.7 0 1.2 0.5 1.2 1.2z"></path>
					<path class="s6" d="m77.9 85c0 0.7-0.5 1.2-1.2 1.2-0.7 0-1.2-0.5-1.2-1.2 0-0.6 0.5-1.2 1.2-1.2 0.7 0 1.2 0.6 1.2 1.2z"></path>
					<path class="s5" d="m80.5 83.8c0 0.7-0.5 1.2-1.2 1.2-0.6 0-1.2-0.5-1.2-1.2 0-0.7 0.6-1.2 1.2-1.2 0.7 0 1.2 0.5 1.2 1.2z"></path>
					<path fill-rule="evenodd" class="s0" d="m81.5 83.2c-0.7 0-1.2-0.6-1.2-1.2 0-0.7 0.5-1.3 1.2-1.3 0.7 0 1.2 0.6 1.2 1.3 0 0.6-0.5 1.2-1.2 1.2z"></path>
					<path class="s5" d="m79.1 78.2c0 0.7-0.6 1.2-1.3 1.2-0.6 0-1.2-0.5-1.2-1.2 0-0.6 0.6-1.2 1.2-1.2 0.7 0 1.3 0.6 1.3 1.2z"></path>
					<path class="s6" d="m78.9 75.2c0 0.7-0.5 1.3-1.2 1.3-0.6 0-1.2-0.6-1.2-1.3 0-0.6 0.6-1.2 1.2-1.2 0.7 0 1.2 0.6 1.2 1.2z"></path>
					<path class="s0" d="m76.2 74.6c0 0.7-0.5 1.2-1.2 1.2-0.6 0-1.2-0.5-1.2-1.2 0-0.7 0.6-1.2 1.2-1.2 0.7 0 1.2 0.5 1.2 1.2z"></path>
					<path class="s6" d="m73.4 74.7c0 0.7-0.5 1.2-1.2 1.2-0.7 0-1.2-0.5-1.2-1.2 0-0.7 0.5-1.2 1.2-1.2 0.7 0 1.2 0.5 1.2 1.2z"></path>
				</g>
			</g>
		</g>
	</g>
</svg></svg></g></g></svg>